<?xml version="1.0" encoding="UTF-8"?>
<svg width="200" height="200" viewBox="0 0 200 200" fill="none" xmlns="http://www.w3.org/2000/svg">
  <circle cx="100" cy="100" r="80" fill="#1C1C1E"/>
  <path d="M100 60C77.909 60 60 77.909 60 100C60 122.091 77.909 140 100 140C122.091 140 140 122.091 140 100C140 77.909 122.091 60 100 60ZM115 105H105V115C105 117.761 102.761 120 100 120C97.239 120 95 117.761 95 115V105H85C82.239 105 80 102.761 80 100C80 97.239 82.239 95 85 95H95V85C95 82.239 97.239 80 100 80C102.761 80 105 82.239 105 85V95H115C117.761 95 120 97.239 120 100C120 102.761 117.761 105 115 105Z" fill="#8B5CF6"/>
  <circle cx="160" cy="40" r="20" fill="#8B5CF6" fillOpacity="0.3"/>
  <circle cx="40" cy="160" r="15" fill="#8B5CF6" fillOpacity="0.2"/>
</svg> 